<svg width="500" height="500" viewBox="0 0 500 500" fill="none" xmlns="http://www.w3.org/2000/svg">
<g clip-path="url(#clip0_409_370)">
<path d="M254.253 375.596C271.265 375.596 289.341 379.85 306.353 376.66C324.428 373.47 341.441 361.775 354.2 346.888C366.959 332.003 375.465 314.99 382.908 296.915C402.047 255.448 415.87 210.791 414.806 166.134C414.806 155.501 412.68 144.869 409.49 134.236C399.92 101.274 372.275 75.7558 339.314 68.3126C303.162 59.8068 265.948 72.566 229.797 70.4398C219.164 69.3762 208.532 68.3136 196.836 67.25C167.065 66.1864 137.293 78.9456 116.028 100.211C94.7632 121.475 83.0666 152.311 84.1302 183.145C85.1938 194.841 87.32 207.6 90.5098 218.233C102.205 266.08 126.661 310.737 159.622 345.825C172.381 359.647 187.267 372.407 205.342 375.596C221.291 379.85 238.304 375.596 254.253 375.596Z" fill="#F16D6E"/>
<path d="M248.941 106.592C246.815 106.592 244.687 104.466 244.687 102.339C244.687 98.0851 245.751 91.7055 244.687 88.5158C244.687 83.1998 243.624 76.8202 242.561 71.5032C241.498 68.3134 241.498 65.1236 240.435 61.9338C241.499 58.744 240.435 55.5542 239.371 52.3644C238.308 49.1746 237.245 45.9848 236.182 42.7951C235.118 39.6053 232.992 36.4155 231.928 34.2893C230.865 31.0995 228.738 28.9733 227.675 26.8461C225.549 24.7199 224.485 22.5927 223.421 20.4665C221.296 18.3413 219.17 16.2151 218.106 15.1515C218.106 15.1515 217.043 14.0879 215.98 13.0253C212.79 9.83553 212.79 5.58214 215.98 2.39234C219.17 -0.797448 224.486 -0.797448 226.613 2.39234C227.677 3.45594 228.739 4.51854 228.739 5.58214C229.803 7.70833 231.929 9.83553 232.993 11.9617C234.056 14.0879 236.183 17.2777 238.309 19.4049C239.372 22.5947 241.499 24.7209 242.562 27.9107C243.626 31.1005 245.752 34.2903 246.816 37.4801C247.879 40.6699 248.942 44.9232 250.005 48.113C251.069 51.3028 252.132 55.5562 252.132 58.746C253.194 61.9348 253.194 66.1882 253.194 69.378C254.258 75.7576 254.258 83.2008 254.258 88.5167C254.258 91.7065 253.194 99.1497 253.194 103.402C253.194 105.529 252.131 106.592 248.941 106.592Z" fill="#3F3333"/>
<path d="M158.559 134.238C154.306 136.364 151.116 138.491 146.863 138.491C142.611 138.491 138.358 136.365 137.294 132.112C137.294 129.985 137.294 127.858 138.358 126.796C141.547 120.416 148.991 116.163 155.37 111.91C177.699 100.215 204.281 92.7716 228.735 98.0876C239.368 100.214 250 104.467 260.633 103.404C265.949 102.34 271.266 100.214 276.582 98.0876C298.911 88.5182 326.555 88.5182 346.758 103.404C351.011 106.593 354.201 109.783 358.453 114.037C377.592 135.301 385.035 166.137 383.972 194.845C381.845 223.553 372.276 252.261 358.453 277.78C355.263 284.159 352.074 290.539 345.694 295.855C344.63 296.918 343.568 297.981 342.504 296.918C341.441 296.918 341.441 295.855 341.441 294.792C335.061 280.969 340.377 265.02 344.63 250.135C348.884 235.25 353.136 220.363 354.2 204.414C355.263 188.465 352.074 172.516 343.567 159.757C340.377 154.441 335.061 149.124 329.744 146.998C325.491 145.934 321.238 145.934 316.985 145.934C297.846 148.061 279.771 156.567 260.632 152.314C240.43 148.061 225.545 131.049 205.342 125.732C188.33 122.541 172.381 127.858 158.559 134.238Z" fill="#E14A4A"/>
<path d="M368.024 398.989V380.914H58.6136C26.7157 380.914 0.133789 407.496 0.133789 440.457C0.133789 473.417 25.6521 499.999 58.6136 499.999H368.024V481.924H353.138C330.81 459.595 330.81 421.318 353.138 398.989H368.024Z" fill="#3A5569"/>
<path d="M150.05 440.457C150.05 418.128 168.125 398.989 190.453 398.989H499.863V380.914H190.453C158.556 380.914 131.974 407.496 131.974 440.457C131.974 473.418 157.492 499.999 190.453 499.999H499.863V481.924H190.453C168.126 481.924 150.05 463.848 150.05 440.457Z" fill="#637888"/>
<path d="M190.459 398.988C168.131 398.988 150.056 417.063 150.056 440.456C150.056 462.784 168.131 481.923 190.459 481.923C331.874 481.923 343.569 481.923 484.984 481.923C462.655 459.594 462.655 421.317 484.984 398.988C343.569 398.988 331.873 398.988 190.459 398.988Z" fill="#E0E0DF"/>
</g>
<defs>
<clipPath id="clip0_409_370">
<rect width="500" height="500" fill="white"/>
</clipPath>
</defs>
</svg>
